<svg xmlns="http://www.w3.org/2000/svg" data-name="Layer 1" viewBox="0 0 750 750" id="photoshop"><path d="M532.25,110.76H217.75a107.12,107.12,0,0,0-107,107v314.5a107.12,107.12,0,0,0,107,107h314.5a107.12,107.12,0,0,0,107-107V217.75A107.12,107.12,0,0,0,532.25,110.76Zm67,421.49a67.06,67.06,0,0,1-67,67H217.75a67.06,67.06,0,0,1-67-67V217.75a67.06,67.06,0,0,1,67-67h314.5a67.06,67.06,0,0,1,67,67Z"></path><path d="M407 320.73A73.78 73.78 0 00333.34 247H280.47a20 20 0 00-20 20V483a20 20 0 1040 0V394.78l33.67-.36A73.7 73.7 0 00407 320.73zm-73.32 33.69l-33.24.36V287h32.87a33.69 33.69 0 01.37 67.38zM429.15 406h32.38a20 20 0 000-40H429.15a43.8 43.8 0 00-43.75 43.75v.86a43.8 43.8 0 0043.75 43.75h8.64a3.75 3.75 0 010 7.49H405.4a20 20 0 000 40h32.39a43.75 43.75 0 000-87.49h-8.64a3.75 3.75 0 01-3.75-3.75v-.86A3.75 3.75 0 01429.15 406z"></path></svg>